/* XPM */
static char *fa8b487730094091e01dd9ea87c74bb9ivCYNdRTGrBVvKfI[] = {
/* columns rows colors chars-per-pixel */
"32 32 179 2 ",
"   c None",
".  c gray21",
"X  c gray26",
"o  c #4B4B4B",
"O  c #535253",
"+  c #535353",
"@  c gray34",
"#  c #5D5D5D",
"$  c #656565",
"%  c DimGray",
"&  c #6A6A6A",
"*  c gray42",
"=  c gray43",
"-  c #6F6F6F",
";  c gray44",
":  c #717171",
">  c #727272",
",  c gray45",
"<  c #747374",
"1  c #747474",
"2  c gray46",
"3  c #767676",
"4  c #777777",
"5  c #787778",
"6  c gray47",
"7  c #797979",
"8  c gray48",
"9  c #7B7B7B",
"0  c #7C7C7C",
"q  c gray49",
"w  c #7E7E7E",
"e  c gray50",
"r  c #808080",
"t  c #818181",
"y  c gray51",
"u  c #828283",
"i  c #838383",
"p  c #848484",
"a  c gray52",
"s  c #858586",
"d  c #868686",
"f  c gray53",
"g  c #878788",
"h  c #888888",
"j  c #898989",
"k  c #8A8A89",
"l  c gray54",
"z  c #8B8B8B",
"x  c gray55",
"c  c #8D8D8D",
"v  c #8E8E8E",
"b  c gray56",
"n  c #909090",
"m  c gray57",
"M  c #929292",
"N  c #929293",
"B  c #939393",
"V  c gray58",
"C  c #959595",
"Z  c #969596",
"A  c gray59",
"S  c #979797",
"D  c #989898",
"F  c gray60",
"G  c #9A9A9A",
"H  c #9B9B9B",
"J  c gray61",
"K  c #9D9D9D",
"L  c #9E9D9E",
"P  c gray62",
"I  c #9F9E9E",
"U  c #9F9F9F",
"Y  c #9FA09F",
"T  c #A0A0A0",
"R  c gray63",
"E  c #A2A1A2",
"W  c #A2A2A2",
"Q  c #A3A2A3",
"!  c gray64",
"~  c #A3A3A4",
"^  c #A4A4A4",
"/  c #A5A5A5",
"(  c gray65",
")  c #A7A7A7",
"_  c gray66",
"`  c #A9A9A9",
"'  c #AAAAAA",
"]  c gray67",
"[  c #ACACAC",
"{  c #ADACAD",
"}  c gray68",
"|  c #ADADAE",
" . c #AEAEAE",
".. c #AFAFAF",
"X. c gray69",
"o. c #B1B1B1",
"O. c #B2B1B2",
"+. c #B2B2B2",
"@. c gray70",
"#. c #B4B3B4",
"$. c #B4B4B4",
"%. c #B5B5B4",
"&. c gray71",
"*. c #B6B6B6",
"=. c #B7B7B7",
"-. c #B7B7B8",
";. c gray72",
":. c #B9B9B9",
">. c gray73",
",. c #BBBBBB",
"<. c #BCBCBC",
"1. c #BDBCBC",
"2. c gray74",
"3. c gray",
"4. c gray75",
"5. c #C0BFC0",
"6. c #C0C0C0",
"7. c #C1C1C1",
"8. c gray76",
"9. c #C3C3C3",
"0. c #C4C3C4",
"q. c gray77",
"w. c #C5C5C5",
"e. c #C6C6C6",
"r. c #C6C6C7",
"t. c gray78",
"y. c #C8C8C8",
"u. c gray79",
"i. c #CACACA",
"p. c #CACACB",
"a. c #CBCBCB",
"s. c gray80",
"d. c #CDCDCD",
"f. c #CECECE",
"g. c gray81",
"h. c #D0D0D0",
"j. c gray82",
"k. c #D2D2D2",
"l. c LightGray",
"z. c #D4D3D4",
"x. c gray83",
"c. c #D5D4D5",
"v. c #D5D5D5",
"b. c gray84",
"n. c #D7D6D7",
"m. c #D7D7D7",
"M. c #D6D8D8",
"N. c #D8D8D8",
"B. c gray85",
"V. c #DADADA",
"C. c gray86",
"Z. c gainsboro",
"A. c #DDDDDD",
"S. c gray87",
"D. c #DFDFDF",
"F. c gray88",
"G. c #E1E1E1",
"H. c #E2E2E2",
"J. c gray89",
"K. c #E4E4E4",
"L. c gray90",
"P. c #E6E6E6",
"I. c #E7E7E7",
"U. c gray91",
"Y. c gray92",
"T. c #ECECEC",
"R. c gray93",
"E. c #EEEEEE",
"W. c #EFEFEF",
"Q. c gray94",
"!. c gray95",
"~. c #F4F4F4",
"^. c gray96",
"/. c #F6F6F6",
"(. c gray97",
"). c #F8F8F8",
"_. c #FBFBFB",
"`. c gray99",
"'. c white",
/* pixels */
"                            G.V.f.<.                            ",
"                    K.E.!.^.E.K.D.a.7._ c p                     ",
"                U.(.^.G.G.V.V.f.<.,.W c p w 8 2                 ",
"              E.^.D.K.K.w.E.<.$ r P &.S < ; , u w               ",
"          G.`.D.D.Y.G.D.[ g.;.x.G O [ V , 8 p 8 8 N p           ",
"        G.`.h.G.Y.C.C.Z.] @.,.<.P ; [ W W 5 , p 9 r G w         ",
"        ).a.V.G.D.D.0.7.w.G ( W p r W c n N 2 - N p w N         ",
"      D.f.f.V.D.D.,.f.D.D.^ - T j r G j j p D p ; N p r j       ",
"    f.h.<.h.x.D.<.a.f.a.h.@.r S p j V b j c j S i 1 V r S x     ",
"    f.&.<.f.V.+.<.a.w.7.6.&.p G , H j c j r c n H i r H h G     ",
"  ,.+.( <.g.[ +.;.&.,.&.&.&.4 p S j S S c S S G N D p n h S c   ",
"  +.G W w.[ W +.+.] _ c h b , p N - c V 8 r W H G H S r n c P   ",
"  +.S ( [ ( ( _ _ _ j G * W ,.+.W S 9 j 7.1 Y ( W ( ( j G N (   ",
"  [ N ( ( _ _ G _ [ h r w.[ w ; h j ! G - S W _ ( N P _ ( S _   ",
"_ [ S _ [ ^ P _ [ ] S ;.+.2 r N * c T H 2 W ,.[ G ( P +.+.U +.W ",
"( [ P [ [ ,.] X.+.B S 7.p c j S p ! f p j 2 P X.[ ^ [ &.&.( +.[ ",
"^ +._ H X.,.,.&.P [ P _ r P U 6.( r j S P x V c ;.#.&.,.-.W &.,.",
"^ @.[ c G 6.@.<.S N 8 P P J S &.<.x W n +.P P P ;.&.&.7.&.( <.+.",
"  ;.[ T - <.,.&.&.[ p c w ~ _ p S p n ^ ,.p ^ ;.-.1.,.f.&._ <.  ",
"  <.[ @.o P <.;.&.,.+.r G S P j G G 9 9._ P ,.;.7.<.a.n.[ [ 7.  ",
"  +.( <.* @ X.<.&.&._ N W W j S f U 4.1., P 7.,.<.<.Y.a.[ &.&.  ",
"  ( +.[ S . r @.,.&.p <.p b P @.,.;.B # D S w.,.+.V.K.<.&.7.,.  ",
"    <.P ,.$ + w ;.q.[ N W @.W j B S U b U ,.f.<.x.W.f.<.<.f.    ",
"    [ ,.] &.X 1 8 @.w.<...t.+.S ..,.g.S f.h.a.x.E.V.w.<.D.h.    ",
"      7.[ 4.[ # ..@.,.<.;.a.#.&.w.7.x.7.h.f.S +.h.a.a.a.V.      ",
"        x._ 4.;.@.7.J w.a.a.+.,.f.w.G.G.V.w.[ +.h.z.g.E.        ",
"        ;.m._ <.7._ [ &.7.h.[ <.V.w.K.h.w.a.x.D.N.x.(.N.        ",
"          [ g.+.@.w.7.[ 7.x._ a.D.w.K.a.f.G.G.x.V.).x.          ",
"              w.a.+.&.,.a.x.&.a.V.h.K.Y.D.h.h.E.E.              ",
"                7.f.7.,.&.<.f.f.a.z.x.x.V.E.!.D.                ",
"                    &.<.h.D.G.G.K.K.E.E.G.D.                    ",
"                            x.V.M.D.                            "
};
