/* XPM */
static char *d156c1ef309e47d3db27f3e237e87bfaU9pGrJoQySOepRi5[] = {
/* columns rows colors chars-per-pixel */
"16 16 98 2 ",
"   c None",
".  c #606060",
"X  c #6A6A6A",
"o  c #777778",
"O  c #7B7B7B",
"+  c gray50",
"@  c #828181",
"#  c #838383",
"$  c #848484",
"%  c gray52",
"&  c #868686",
"*  c gray53",
"=  c #878788",
"-  c #8B8B8B",
";  c gray55",
":  c #8D8D8D",
">  c #8E8E8E",
",  c gray56",
"<  c gray57",
"1  c #939293",
"2  c #939393",
"3  c gray58",
"4  c #959595",
"5  c gray59",
"6  c #979797",
"7  c #989898",
"8  c gray60",
"9  c #9A9A9A",
"0  c #9B9B9B",
"q  c gray61",
"w  c #9D9D9D",
"e  c gray62",
"r  c #9F9F9F",
"t  c #A0A0A0",
"y  c gray63",
"u  c #A2A2A2",
"i  c gray64",
"p  c #A4A4A4",
"a  c #A5A5A5",
"s  c #A7A7A7",
"d  c gray66",
"f  c #A9A9A9",
"g  c #AAAAAA",
"h  c gray67",
"j  c #ACABAC",
"k  c #ACACAC",
"l  c gray68",
"z  c #AEAEAE",
"x  c #AFAFAF",
"c  c gray69",
"v  c #B1B1B1",
"b  c #B2B2B2",
"n  c gray70",
"m  c #B4B4B4",
"M  c #B6B6B6",
"N  c #B7B7B7",
"B  c gray72",
"V  c #B9B9B9",
"C  c gray73",
"Z  c #BBBBBB",
"A  c #BCBCBC",
"S  c gray74",
"D  c gray",
"F  c #C0BFC0",
"G  c #C0C0C0",
"H  c #C1C1C1",
"J  c #C5C5C5",
"K  c #C6C6C6",
"L  c gray78",
"P  c #C8C8C8",
"I  c #C9C8C9",
"U  c #CACACA",
"Y  c #CBCBCB",
"T  c gray80",
"R  c gray81",
"E  c #D0D0D0",
"W  c #D2D2D2",
"Q  c #D5D5D5",
"!  c gray84",
"~  c #D8D8D8",
"^  c gray85",
"/  c #DADADA",
"(  c gray86",
")  c gainsboro",
"_  c gray87",
"`  c #DFDFDF",
"'  c #E2E2E2",
"]  c gray89",
"[  c #E4E4E4",
"{  c #E6E6E6",
"}  c #E7E7E7",
"|  c #E9E9E9",
" . c #EAEAEA",
".. c #ECECEC",
"X. c gray93",
"o. c #EFEFEF",
"O. c gray95",
"+. c #F3F3F3",
/* pixels */
"            } ) U g             ",
"        } O.| U x g + o         ",
"    ] O.| ~ N C % q % O : -     ",
"    } ) ! E N 6 : 1 : # # :     ",
"  G U R G R F % - 1 % 1 % : :   ",
"  b C x b g 9 : : : : 6 9 : 6   ",
"i s s s s : q 6 : 2 6 i i q i 9 ",
"i g x g s g 9 # : 2 % g i x b s ",
"d s b C 9 6 1 x t : q 6 m C N x ",
"x k , D c 1 6 6 : g d c C U C b ",
"  C X i D q 6 9 s 9 6 C K ! D   ",
"  x q . x n x i g i N U ) U K   ",
"    U i g C K N U ! R N E ]     ",
"    C U D b K D ! ~ R ~ O.)     ",
"        D K E E ) | ..)         ",
"            K ! ~ ~             "
};
