/* XPM */
static char *c2f5faed74344d28f6be345354a38272fEVXMWre7ecQpCkQ[] = {
/* columns rows colors chars-per-pixel */
"64 64 152 2 ",
"   c None",
".  c black",
"X  c gray4",
"o  c #141414",
"O  c #1D1E1D",
"+  c #232323",
"@  c #2B2B2B",
"#  c #343434",
"$  c #3B3B3B",
"%  c #444444",
"&  c #4C4C4C",
"*  c #545454",
"=  c #5C5C5C",
"-  c #646464",
";  c #6B6B6B",
":  c #747474",
">  c #787778",
",  c #7C7C7C",
"<  c #7F807F",
"1  c #848484",
"2  c #878887",
"3  c #878788",
"4  c #8C8B8C",
"5  c #8F9090",
"6  c #949494",
"7  c #9B9B9B",
"8  c #A09FA0",
"9  c #A4A4A4",
"0  c #A7A7A8",
"q  c #A8A7A8",
"w  c #ACACAC",
"e  c #B0AFAF",
"r  c #B0AFB0",
"t  c #B1B0B1",
"y  c #B2B1B2",
"u  c #B2B2B2",
"i  c #B3B2B3",
"p  c gray70",
"a  c #B4B4B4",
"s  c gray71",
"d  c #B6B6B6",
"f  c #B7B7B7",
"g  c #B4B4B4",
"h  c #B7B7B8",
"j  c gray72",
"k  c #B9B9B9",
"l  c #B9BABA",
"z  c gray73",
"x  c #BBBABB",
"c  c #BBBBBB",
"v  c #BCBCBC",
"b  c gray74",
"n  c gray",
"m  c gray75",
"M  c #BBBBBB",
"N  c #C0C0C0",
"B  c #C1C0C1",
"V  c #C1C1C1",
"C  c gray76",
"Z  c #C3C2C2",
"A  c #C2C3C3",
"S  c #C3C3C3",
"D  c gray77",
"F  c #C5C5C5",
"G  c #C6C6C6",
"H  c gray78",
"J  c #C4C4C4",
"K  c #C8C7C8",
"L  c #C8C7C8",
"P  c #C8C8C8",
"I  c #C9C8C9",
"U  c gray79",
"Y  c #CACACA",
"T  c #CBCACB",
"R  c #CBCBCB",
"E  c #CBCCCC",
"W  c gray80",
"Q  c #CDCDCD",
"!  c #CECDCE",
"~  c #CECECE",
"^  c gray81",
"/  c #CBCBCB",
"(  c #D0D0D0",
")  c gray82",
"_  c #D2D2D2",
"`  c #D3D2D3",
"'  c LightGray",
"]  c #D4D3D3",
"[  c gray83",
"{  c #D5D5D5",
"}  c #D7D5D5",
"|  c gray84",
" . c #D7D6D7",
".. c #D7D7D7",
"X. c #D3D3D3",
"o. c #D8D7D8",
"O. c #D8D8D8",
"+. c gray85",
"@. c #DADADA",
"#. c gray86",
"$. c #DBDCDB",
"%. c gainsboro",
"&. c #DDDDDD",
"*. c gray87",
"=. c #DFDFDF",
"-. c #DCDCDC",
";. c gray88",
":. c #E1E0E1",
">. c #E1E1E1",
",. c #E2E2E2",
"<. c gray89",
"1. c #E3E3E4",
"2. c #E4E4E4",
"3. c gray90",
"4. c #E6E6E5",
"5. c #E6E6E6",
"6. c #E7E7E7",
"7. c #E3E3E3",
"8. c #E8E7E7",
"9. c #E8E7E8",
"0. c gray91",
"q. c #E9E8E8",
"w. c #E9E9E9",
"e. c #EAE9EA",
"r. c #EAEAEA",
"t. c gray92",
"y. c #ECECEC",
"u. c gray93",
"i. c #EEEEEE",
"p. c #EFEEEF",
"a. c #EFEFEF",
"s. c #EBEBEB",
"d. c gray94",
"f. c #F1F1F1",
"g. c gray95",
"h. c #F3F3F3",
"j. c #F4F4F4",
"k. c gray96",
"l. c #F6F6F6",
"z. c #F7F6F6",
"x. c gray97",
"c. c #F2F2F2",
"v. c #F8F8F8",
"b. c #F9F9F9",
"n. c gray98",
"m. c #FBFAFB",
"M. c #FBFBFB",
"N. c gray99",
"B. c #FDFDFD",
"V. c #FEFEFE",
"C. c white",
"Z. c gray98",
/* pixels */
"                                                                                                                                ",
"                                                  ) #.&.1.&.&.4...R J v h w 7                                                   ",
"                                            &.4.m.C.m.z.c.t.0.4.#.{ Q K R J w w 4 1                                             ",
"                                      R ;.C.C.j.j.d.t.;.{ ) R V b v v s 9 j w 7 6 5 7 > 1                                       ",
"                                  { f.C.j.j.a.7.) R H H H P H R R j y 7 7 6 4 4 4 5 < ; 1 , ,                                   ",
"                              { 0.C.v.j.q.) H Y #.t.t.t.;.4.4.) H [ Q b a 9 6 1 : > ; : : ; : : >                               ",
"                            ;.C.g.c.q.[ Y #.u.a.4.1.t.;.t.V > - = - 9 H y w 7 4 2 , ; - > > , > , ,                             ",
"                          t.m.j.a.' Y &.a.g.z.u.7 9 t.4.Q * @ = 6 4 # 7 j q s 4 ; > > : : : > 2 1 > ,                           ",
"                      #.m.g.j.;.D ..a.u.a.c.#.v q 4 7.r.0 n l m 9 7 * * f 8 k ; - , 1 > < < : , 1 , : 6 1                       ",
"                    #.C.y.a.Q H 0.a.t.f.2.A D t.t.; ( 4.< r.b.a.0 1 * * w 0 9 : 2 : : > 4 5 1 - ; , 4 4 6 1                     ",
"                  #.m.t.t.H R y.t.t.a.~ V 2.v.t.7.1 0 0.< p m [ y 6 = : 9 f 7 4 8 5 , ; > 4 2 > > : 1 6 4 6 ,                   ",
"                #.C.4.;.j Q t.0.q.q.Y ..j.t.Q s n 4 < ;.n 8 8 6 w 9 : , w M q p a 9 < ; - - 1 2 1 2 > > 4 5 5 ;                 ",
"              { m.4.4.b Q 4.4.;.2.) 0.c.' M e e H j ; A 7 n w 9 = 1 : & w 0 : 4 5 8 q 6 - = - 4 6 4 4 > > 4 1 4                 ",
"              t.;.1.V H 7.&.;.;.' t.t.A p j ) $.>.;.: 9 e * e n 4 7 , , p 4 1 7 < : < 7 7 > - ; 4 4 4 6 > ; 4 4 1               ",
"            #.;.;.R b ;.#.&.&.) t.0.M e m $.=.$.$.$.0 : A $ 8 [ < = > 7 M > 4 5 4 2 1 : 6 9 2 - - 6 5 2 6 > 1 4 4 ,             ",
"          R 4.#.E j ..{ { { E 4.0.A p G O.[ ' $...[ H - 0 & - e w * $ 9 9 ; 7 6 4 4 4 4 < 6 0 < = > 1 4 4 4 : 2 4 6 ,           ",
"          { Q { s H { ( ) W <.0.H l D ' ~ ~ ) Y Q ( ' < 4 > $ e n % * u 6 1 6 6 5 1 5 6 7 1 5 0 4 * : 6 4 4 1 : 5 6 5           ",
"        R ) Q M s W R W F =.4.V s n ) R U U Y Y Y H Q 9 - n 7 2 2 - 2 i < 6 6 2 4 1 < 4 2 5 < 6 w , = 1 5 5 7 > 1 7 7 1         ",
"        { V D 0 l H W F $.<.n p j R H U H U U V A A H l * 7 p 2 2 4 8 8 : 7 6 4 2 5 1 1 1 5 6 1 7 w , = 4 6 7 6 : 7 7 5         ",
"      V H b w y N V j { <.N e w C N H N D D D N v n a j < ; 2 : = = f 1 2 6 2 4 5 2 2 1 2 7 6 7 1 6 w > * 6 7 9 1 < 7 6 1       ",
"      m e y 7 s l l R >.b w e j p l p s N N j p j e e e 6 @ 6 O.< @ 7 < 6 6 6 6 2 4 2 5 6 6 7 7 7 2 5 w < ; 7 7 7 ; 6 6 1       ",
"    A M w 7 6 f w b $.l 9 0 j j j p e p e N N b s e 0 e 9 - # 6 f 5 7 3 7 4 6 7 7 5 6 7 7 6 7 7 6 6 1 4 y : > 6 6 > 1 6 7 1     ",
"    M y 0 6 8 e 8 ( F 7 7 w w e j p e 0 e 7 < 1 9 q 0 7 9 - . 5 e 7 > 4 7 7 7 6 - - 4 7 7 8 7 6 7 7 7 6 2 0 - 4 6 4 : 7 0 4     ",
"    f w 8 1 w 9 l ' 9 7 9 w e e p q e q 8 9 9 - & 7 7 : $ = 7 8 ; ; = = < 7 7 = 5 , # 6 8 7 9 8 7 7 9 0 6 6 2 : 7 7 : 7 0 7     ",
"    y w 7 5 w 9 V v 8 0 w 0 0 0 w q 0 e 1 0 $.< @ & * ; q [ ~ q w 6 5 > = ; = J 0.9 ; - 9 9 8 9 9 8 9 0 0 7 5 > 7 0 2 4 9 0     ",
"  y e w 4 7 0 7 8 8 9 q 0 w q w 9 0 w w 6 . 2 n ; 2 H ' ] V 8 w I w f f 7 < = 1 A &.< > 8 9 0 0 9 0 w w 9 0 5 2 6 9 5 2 w 0 6   ",
"  w 0 9 < 7 9 9 6 q q q 7 < 9 e 9 9 w e w : $ 4 ) V j j 4 = @ < 6 = : 6 u q w * 2 ; - 9 8 0 0 9 0 6 1 6 0 0 0 9 q 7 9 < 9 w 6   ",
"  8 w 0 , 9 9 0 e q p 0 V H - 6 w w 0 9 7 7 = s e q e ; ; 1 ; , < : 5 3 - 8 q e # ; 8 9 9 9 0 w 9 w w % 1 w w e w 0 w < 7 y 7   ",
"  9 w 8 2 9 0 0 w w w 8 : ( j 4 p w 8 0 9 4 5 ' q V 0 & 2 q 1 5 < ; 4 , 8 z 9 f ; ; 9 9 w w w e 9 < Y M 2 w 0 e e e y 1 9 w 7   ",
"  w y 7 2 w 0 0 w w w p ; 6 e w p w 9 8 9 1 l U n < = 7 - < 8 9 < = ; 8 Q 1 % u 6 # 6 e a u u w e < 8 f 6 w w t y e s 6 9 y q   ",
"  y y 6 4 e 0 0 0 e j p p 9 9 s p e j e 9 < H l 9 , 2 , 8 ; - 6 4 o 7 W 2 ; , < s & ; f b l e e w e 7 4 9 w s a e e p 6 9 p y   ",
"  w p 6 6 y w e q p l j j j s w u w < < < 9 Q s < 5 w 9 5 e : p 4 6 W 6 : 8 9 : 0 1 * < < 5 e p e e p e w e M f s p s 6 7 k f   ",
"  e j 6 6 p 0 6 k a a M k f a p 0 7 7 6 % f m 9 $ - < 6 , 2 $.H 9 6 : O ; < 4 = 7 w % - 2 & : a e e y e s f a M j a M 6 6 a V   ",
"  e M 7 7 k 0 = a k k k M p a k 9 5 %.[ 1 6 p 6 8 8 9 y i w k a i 6 2 9 7 5 6 q a a ; V H 5 - 9 k e f y f j k b f q k 6 9 v b   ",
"  w f 9 7 j p * 7 v M k f f y k s X < ) p % e p 7 9 9 5 5 > 0 V f Z 8 8 7 9 9 6 7 a q 1 O.O.2 9 M f f a s M k H w w f 6 w M s   ",
"  0 f 9 6 f f - - M f M f k k s v 7 & - & % w 7 = 8 8 6 > q w y ] Q = = 7 7 6 = 9 ..9 $ - * 4 a a p f f s k s #.0 e M 5 w v y   ",
"  w M 0 4 f n , & 0 v f b M M f p k w 0 q * 1 p - 9 q 7 a ) : 6 8 ; u ; 7 k w 7 p Q > 5 9 e v a p f v k k a D =.8 j k 6 y f t   ",
"  9 b e 4 f V 2 $ , M f M j s a k j k s j 2 * v ; : 2 e V 5 # 6 7 ; 4 9 - 4 7 a / e - 0 y v k f f M v M v f %...7 M e 6 f V y   ",
"  6 b m 6 p G 8 % = 7 M s f M f s j k e s a $ 9 q # 8 A 4 2 2 2 7 6 9 < q * 7 H ..1 4 w e a a v V m m V M V a.R 0 M w 9 f A f   ",
"    b V 9 q G k $ = - e k j M k k p k a e v 5 : Y 6 9 2 9 e 7 5 6 7 z 5 * f H J Y , 9 w a s k c A V A V f $.f.M w v 0 p j m     ",
"    y b w 6 V A ; % = > j f M f s f s f a 0 - # 0 j 5 = 1 w 7 4 6 4 7 4 2 a a H < = e c c c k k N b V b Q g.7.w e f 9 f s v     ",
"    7 b s 1 p D 7 . = * 6 M k f p s a s w < V 0 % f / e ; = ; 7 1 = 4 e ) [ V 9 2 $ - J n v k v j s b J y.a.{ w M w e b j a     ",
"    4 j j 6 9 m y % $ - - 0 b p k j a k 2 7 %.) q & , w G f s / q c ] O.H 8 & = k 6 & 9 H V c z j j j ;.y.7.H w V w f j G j     ",
"      w s w 4 s s 4 . - > - 0 k a n k k 9 . 9 $., > 6 - ; 9 D w k +.k 1 - % ; o 7 %.7 w H V n k j s #.g.;.$.y v b e m s V       ",
"      6 b j 4 9 j j = O : - = 9 A b m f v 4 - * < 9 e f q 4 - 7 w : ; 4 u 1 2 7 * - 4 J / D V v s { g.;.1.Q j H p j b R m       ",
"        j b w 4 j b 0 o % > : - 8 V m V v V p f a e w v / y # e 8 & q D H e ; V V f D H / ( D a O.j.t.4...s R H j Q V )         ",
"        7 V V 7 7 m V 1 . * 2 < - 6 G V V v V D 0 a k V Q 0 . y [ - w Q H H > 9 ) H / / ( H V =.g.9.4.;.s H R s Q ) $.Q         ",
"          j b j 1 f V V ; . - 4 , * 6 A b m V s q k V H R e - V %.5 c Q / } 7 , ) ( ) ] ] / %.r.;.4.4.b J ( b j { { $.          ",
"          6 H V y 4 H H v = + 2 7 8 6 0 k V b k 9 a D V H k 1 ( ) 8 m R ) { V 6 R #.{ Q y 6 9 V ;.;.v H ) R s { ) ;.H           ",
"            w H A 0 7 R V V - = w #.O.w y D V V V D V D / w 2 ] @.w v ....X.{ ..^ X.{ s 7 : , R ) p R #.) j X.#.#.)             ",
"              H D H 7 9 H D n 4 6 H { n 1 M / D H / H D Q 9 5 #.#.y v $.#...&.O.X.X.[ b t j w r r [ @.@.V R &.{ ;.              ",
"              7 ) H H 6 w R V R w i J j 7 : V [ H R D H ( 7 7 O.@.v p =.@.=.=.@.#.X.R s v P w H &.@.=.J Q ;.#.t.H               ",
"                q ..H H 6 0 H H j 9 7 5 v v 4 b / / H / ) 4 7 #.1.H 0 ;.$.=.;.=.@.D R { #.V V @.;.&.V ) 7.=.g.Q                 ",
"                  q [ H H 7 6 H R D V w 6 b [ 0 9 / / / ] 2 q %.1.X.w ;.=.=.&.J w ) ) b ^ 4.=.=.&.J ( t.;.g.)                   ",
"                    0 Q V H w 6 v R D R V y 6 f / H ) / ) , j &.=.&.w ;.;.4.X.6 R X.) =.4.9.t.X.b #.t.0.v.E                     ",
"                      7 H V H k 7 0 V R A R y 9 D / / ) ) : D ;.=.;.w #.;.1.9.Q V &.4.1.9.=.R E 1.9.1.j.R                       ",
"                        6 H H V R w 7 w V R H b H ^ Q ) H ; R ;.1.t.w ) 1.;.9.9.9.0.4.&.P N { t.y.y.d.J                         ",
"                            y ) R Q R 0 6 0 k H R ^ / R ) s b H H Q H #.4.4.0.t.;.#.H m Q ;.t.y.N.@.                            ",
"                              e Q Q V H b w 7 9 a k H ) #.&.#.{ ..#.1.t.4.&.{ E H J { ;.t.4.g.y.R                               ",
"                                  s E R V V H V a q w w a j D H H H V D V V E O.;.9.t.t.x.d.^                                   ",
"                                      y j H K D R X.) ^ ^ Q R / R ) ) { ;.4.t.t.t.y.j.4.)                                       ",
"                                          9 y b ^ +.@.&.&.&.&.&.;.&.;.t.t.y.g.t.;.) H                                           ",
"                                                  s D H ) #.@.&.#.&.&.#.#.X.Q                                                   ",
"                                                                                                                                "
};
